<svg width="48" height="48" viewBox="0 0 48 48" fill="none" xmlns="http://www.w3.org/2000/svg">
<rect width="48" height="48" fill="#323238"/>
<g clip-path="url(#clip0_61385:205)">
<path d="M36.6849 16.8454C35.7604 17.236 34.7804 17.4936 33.7769 17.6099C34.8352 17.0044 35.6271 16.0518 36.0048 14.9295C35.0116 15.4966 33.9234 15.8957 32.7883 16.1093C32.0948 15.3978 31.1931 14.9025 30.2008 14.6882C29.2084 14.4739 28.1715 14.5504 27.2254 14.9078C26.2792 15.2652 25.4678 15.8869 24.8968 16.6917C24.3259 17.4966 24.022 18.4472 24.0248 19.4196C24.0229 19.7917 24.0668 20.1627 24.1557 20.525C22.1397 20.4295 20.1674 19.9287 18.3677 19.0552C16.5679 18.1817 14.9812 16.9552 13.7111 15.4557C13.0631 16.5232 12.8653 17.7866 13.1579 18.9887C13.4505 20.1907 14.2116 21.2409 15.2861 21.9254C14.4786 21.9063 13.6882 21.6985 12.9841 21.3201V21.3803C12.9836 22.4996 13.3885 23.5846 14.1302 24.4509C14.8718 25.3171 15.9043 25.9112 17.0523 26.1323C16.6174 26.245 16.1687 26.3022 15.7181 26.3022C15.3985 26.3028 15.0797 26.2727 14.7664 26.2125C15.0901 27.1752 15.7205 28.017 16.5694 28.6203C17.4184 29.2236 18.4435 29.5582 19.5012 29.5771C17.7065 30.9254 15.489 31.6564 13.2063 31.6522C12.8024 31.6518 12.3989 31.6285 11.9979 31.5826C14.3045 33.0172 16.9986 33.7781 19.7505 33.7722C21.6488 33.7849 23.5308 33.4369 25.2871 32.7482C27.0434 32.0596 28.639 31.0442 29.9811 29.761C31.3232 28.4777 32.3851 26.9523 33.1049 25.2734C33.8248 23.5945 34.1883 21.7955 34.1744 19.9812C34.1744 19.7712 34.1744 19.5612 34.1583 19.3559C35.1498 18.6691 36.0054 17.819 36.6849 16.8454V16.8454Z" fill="white"/>
</g>
<defs>
<clipPath id="clip0_61385:205">
<rect width="24.6858" height="19.2001" fill="white" transform="translate(12 14.5711)"/>
</clipPath>
</defs>
</svg>
