<svg width="48" height="48" viewBox="0 0 48 48" fill="none" xmlns="http://www.w3.org/2000/svg">
<rect width="48" height="48" fill="#323238"/>
<g clip-path="url(#clip0_61385:212)">
<path d="M36.5252 18.8108C36.5698 17.7824 36.219 16.7777 35.5499 16.0171C34.8809 15.2566 33.9481 14.8023 32.9564 14.7539C30.285 14.6241 27.5608 14.5711 24.7784 14.5711H23.9108C21.1337 14.5711 18.4042 14.6214 15.7328 14.7539C14.7408 14.8056 13.809 15.2624 13.141 16.0245C12.473 16.7867 12.1233 17.7921 12.1684 18.8208C12.0485 20.6043 11.9947 22.3804 12 24.1611C12.0053 25.9418 12.0485 27.7207 12.164 29.506C12.117 30.5363 12.4655 31.5439 13.1334 32.3084C13.8013 33.0728 14.734 33.5318 15.7275 33.5848C18.5338 33.72 21.4132 33.7795 24.3402 33.7749C27.2719 33.7846 30.1428 33.7213 32.9529 33.5848C33.9464 33.5327 34.8796 33.0747 35.5483 32.311C36.2169 31.5472 36.5666 30.54 36.5208 29.5096C36.6363 27.7243 36.6892 25.9446 36.6848 24.1602C36.6942 22.3771 36.641 20.5939 36.5252 18.8108ZM21.9783 29.0654V19.2413L28.9705 24.1511L21.9783 29.0654Z" fill="white"/>
</g>
<defs>
<clipPath id="clip0_61385:212">
<rect width="24.6857" height="19.2001" fill="white" transform="translate(12 14.5711)"/>
</clipPath>
</defs>
</svg>
